<?xml version="1.0" standalone="no"?>
<!DOCTYPE svg PUBLIC "-//W3C//DTD SVG 20010904//EN"
 "http://www.w3.org/TR/2001/REC-SVG-20010904/DTD/svg10.dtd">
<svg version="1.0" xmlns="http://www.w3.org/2000/svg"
 width="512.000000pt" height="512.000000pt" viewBox="0 0 512.000000 512.000000"
 preserveAspectRatio="xMidYMid meet">

<g transform="translate(0.000000,512.000000) scale(0.100000,-0.100000)"
fill="#000000" stroke="none">
<path d="M3013 5096 l-28 -24 0 -205 c0 -204 0 -206 24 -231 33 -35 83 -35
116 -1 25 24 25 25 25 230 l0 206 -26 24 c-34 32 -75 32 -111 1z"/>
<path d="M1472 4667 c-15 -16 -22 -36 -22 -62 0 -37 9 -47 188 -226 126 -127
197 -190 216 -195 58 -14 116 44 102 102 -5 19 -68 90 -195 217 -181 180 -189
187 -228 187 -28 0 -46 -6 -61 -23z"/>
<path d="M4373 4497 c-182 -182 -193 -195 -193 -230 0 -49 36 -87 82 -87 29 0
54 21 230 198 177 176 198 201 198 230 0 46 -38 82 -87 82 -35 0 -48 -11 -230
-193z"/>
<path d="M2940 4431 c-533 -56 -975 -401 -1154 -900 -29 -79 -66 -235 -66
-275 0 -22 -6 -26 -57 -36 -280 -55 -546 -229 -702 -458 -88 -130 -157 -302
-182 -449 -15 -94 -13 -295 4 -376 11 -50 12 -69 3 -72 -6 -2 -42 -11 -80 -20
-423 -100 -727 -512 -703 -951 14 -246 111 -458 288 -630 119 -114 254 -190
419 -236 l85 -23 1725 0 1725 0 100 27 c495 136 805 577 764 1085 -32 396
-311 749 -691 876 -114 38 -189 50 -325 51 -68 0 -123 3 -123 6 0 4 12 15 28
27 36 27 157 171 212 252 59 88 134 251 165 358 207 709 -185 1453 -885 1682
-166 54 -387 79 -550 62z m310 -182 c99 -13 259 -63 351 -109 254 -129 467
-358 570 -616 147 -366 108 -774 -103 -1101 -48 -74 -154 -203 -167 -203 -5 0
-21 19 -36 43 -138 209 -373 351 -625 376 -94 10 -235 -1 -310 -23 l-48 -14
-53 90 c-185 312 -507 517 -857 544 l-83 7 7 41 c14 87 57 215 104 312 129
265 361 479 634 585 202 78 383 98 616 68z m-1145 -1209 c275 -74 500 -264
621 -525 54 -117 72 -125 196 -83 167 55 354 49 502 -16 83 -37 167 -98 233
-170 71 -78 108 -142 148 -260 42 -125 52 -131 186 -119 302 29 564 -76 758
-302 59 -69 142 -230 168 -325 28 -102 25 -340 -5 -443 -97 -337 -380 -578
-725 -617 -62 -8 -625 -10 -1737 -8 l-1645 3 -73 23 c-263 81 -446 257 -532
512 -34 100 -39 298 -11 410 39 157 121 290 242 396 118 102 260 164 423 183
142 17 158 45 113 198 -19 67 -22 100 -21 243 0 150 3 173 28 255 49 162 145
317 262 424 147 135 292 202 524 245 60 11 267 -3 345 -24z"/>
<path d="M4654 3146 c-20 -9 -35 -25 -42 -45 -13 -36 -8 -56 21 -88 20 -22 26
-23 227 -23 201 0 207 1 227 23 42 44 31 111 -22 133 -47 19 -366 19 -411 0z"/>
</g>
</svg>
